<?xml version="1.0" encoding="iso-8859-1"?>
<!-- Generator: Adobe Illustrator 16.0.0, SVG Export Plug-In . SVG Version: 6.00 Build 0)  -->
<!DOCTYPE svg PUBLIC "-//W3C//DTD SVG 1.1//EN" "http://www.w3.org/Graphics/SVG/1.1/DTD/svg11.dtd">
<svg version="1.1" id="Layer_1" xmlns="http://www.w3.org/2000/svg" xmlns:xlink="http://www.w3.org/1999/xlink" x="0px" y="0px"
	 width="595.279px" height="841.891px" viewBox="0 0 595.279 841.891" style="enable-background:new 0 0 595.279 841.891;"
	 xml:space="preserve">
<title>Facebook</title>
<path style="fill:#FFFFFF;" d="M595.28,422.756c0-164.372-133.268-297.64-297.64-297.64C133.269,125.116,0,258.384,0,422.756
	c0,148.572,108.837,271.695,251.134,294.019V508.799h-75.576V422.73h75.576v-65.53c0-74.584,44.447-115.807,112.434-115.807
	c32.542,0,66.621,5.829,66.621,5.829v73.244h-37.552c-36.982,0-48.516,22.943-48.516,46.481v55.808h82.546l-13.195,86.067h-69.351
	V716.8C486.443,694.451,595.28,571.303,595.28,422.756z"/>
</svg>
