<?xml version="1.0" encoding="iso-8859-1"?>
<!-- Generator: Adobe Illustrator 16.0.0, SVG Export Plug-In . SVG Version: 6.00 Build 0)  -->
<!DOCTYPE svg PUBLIC "-//W3C//DTD SVG 1.1//EN" "http://www.w3.org/Graphics/SVG/1.1/DTD/svg11.dtd">
<svg version="1.1" id="Layer_1" xmlns="http://www.w3.org/2000/svg" xmlns:xlink="http://www.w3.org/1999/xlink" x="0px" y="0px"
	 width="595.279px" height="841.891px" viewBox="0 0 595.279 841.891" style="enable-background:new 0 0 595.279 841.891;"
	 xml:space="preserve">
<title>Instagram</title>
<path style="fill:#FFFFFF;" d="M297.64,123.305c-80.858,0-90.954,0.372-122.702,1.786c-31.698,1.488-53.277,6.474-72.252,13.84
	c-19.569,7.59-36.188,17.784-52.731,34.328c-16.544,16.544-26.764,33.137-34.328,52.732C8.26,244.966,3.25,266.545,1.786,298.243
	C0.298,329.991,0,340.086,0,420.945c0,80.857,0.372,90.953,1.785,122.702c1.488,31.674,6.474,53.276,13.841,72.252
	c7.59,19.545,17.784,36.188,34.328,52.73c16.543,16.521,33.137,26.765,52.731,34.328c18.999,7.342,40.578,12.377,72.252,13.841
	c31.748,1.487,41.844,1.785,122.702,1.785s90.954-0.372,122.702-1.785c31.674-1.487,53.276-6.499,72.252-13.841
	c19.545-7.59,36.188-17.809,52.731-34.328c16.52-16.543,26.764-33.112,34.327-52.73c7.342-18.976,12.377-40.578,13.841-72.252
	c1.488-31.749,1.786-41.845,1.786-122.702c0-80.859-0.372-90.954-1.786-122.703c-1.487-31.674-6.499-53.302-13.841-72.252
	c-7.59-19.57-17.809-36.188-34.327-52.732c-16.544-16.544-33.112-26.763-52.731-34.328c-18.976-7.367-40.578-12.377-72.252-13.84
	C388.594,123.603,378.499,123.305,297.64,123.305z M297.64,176.88c79.445,0,88.92,0.397,120.296,1.761
	c29.021,1.364,44.771,6.176,55.237,10.293c13.938,5.382,23.812,11.831,34.277,22.224c10.394,10.417,16.843,20.314,22.225,34.253
	c4.066,10.467,8.93,26.217,10.244,55.237c1.413,31.401,1.735,40.826,1.735,120.296c0,79.47-0.372,88.92-1.836,120.296
	c-1.513,29.02-6.35,44.771-10.441,55.236c-5.557,13.939-11.882,23.812-22.299,34.278c-10.393,10.394-20.438,16.841-34.229,22.224
	c-10.417,4.067-26.416,8.93-55.437,10.244c-31.6,1.413-40.899,1.735-120.52,1.735c-79.645,0-88.944-0.372-120.521-1.835
	c-29.044-1.513-45.043-6.35-55.46-10.442c-14.112-5.556-23.812-11.881-34.204-22.298c-10.44-10.393-17.113-20.438-22.321-34.229
	c-4.094-10.418-8.905-26.416-10.418-55.437c-1.116-31.253-1.514-40.9-1.514-120.146c0-79.271,0.396-88.945,1.514-120.569
	c1.513-29.02,6.324-44.993,10.418-55.411c5.208-14.138,11.881-23.811,22.321-34.253c10.394-10.393,20.092-17.089,34.204-22.273
	c10.417-4.117,26.068-8.954,55.088-10.442c31.625-1.116,40.927-1.488,120.521-1.488L297.64,176.88L297.64,176.88z M297.64,268.107
	c-84.455,0-152.838,68.457-152.838,152.838c0,84.455,68.456,152.838,152.838,152.838c84.455,0,152.838-68.457,152.838-152.838
	C450.478,336.49,382.021,268.107,297.64,268.107z M297.64,520.158c-54.815,0-99.213-44.397-99.213-99.213
	c0-54.816,44.396-99.214,99.213-99.214c54.815,0,99.214,44.398,99.214,99.214C396.854,475.761,352.455,520.158,297.64,520.158z
	 M492.247,262.08c0,19.719-16.022,35.717-35.717,35.717c-19.719,0-35.717-16.023-35.717-35.717
	c0-19.694,16.022-35.692,35.717-35.692C476.199,226.363,492.247,242.386,492.247,262.08z"/>
</svg>
