<?xml version="1.0" encoding="utf-8"?>
<!-- Generator: Adobe Illustrator 16.0.0, SVG Export Plug-In . SVG Version: 6.00 Build 0)  -->
<!DOCTYPE svg PUBLIC "-//W3C//DTD SVG 1.1//EN" "http://www.w3.org/Graphics/SVG/1.1/DTD/svg11.dtd">
<svg version="1.1" id="Layer_1" xmlns="http://www.w3.org/2000/svg" xmlns:xlink="http://www.w3.org/1999/xlink" x="0px" y="0px"
	 width="283.46px" height="283.46px" viewBox="0 0 283.46 283.46" enable-background="new 0 0 283.46 283.46" xml:space="preserve">
<path fill-rule="evenodd" clip-rule="evenodd" fill="#FFFFFF" d="M27.985,257.594c1.14-4.412,2.141-8.446,3.225-12.458
	c3.941-14.599,7.874-29.201,11.898-43.777c0.897-3.249,0.615-6.23-0.909-9.198c-10.736-20.9-15.268-43.077-13.141-66.479
	c2.066-22.734,10.011-43.288,23.858-61.488C65.051,48.245,80.243,36.048,98.6,28.037c28.052-12.241,56.812-14.702,86.154-5.034
	c31.594,10.409,54.915,30.714,69.825,60.299c12.336,24.479,15.333,50.451,9.874,77.316c-4.815,23.702-15.857,44.146-33.062,61.121
	c-18.405,18.158-40.501,29.093-66.118,32.839c-24.606,3.598-48.018-0.266-70.474-10.868c-2.544-1.202-6.086-1.544-8.825-0.878
	c-18.669,4.536-37.246,9.449-55.853,14.24C29.566,257.215,29.008,257.344,27.985,257.594z M55.009,230.434
	c1.512-0.213,2.221-0.242,2.893-0.418c7.714-2.009,15.474-3.867,23.117-6.117c7.109-2.094,13.365-2.821,20.693,1.202
	c24.13,13.25,49.897,15.278,76.012,6.908c30.403-9.745,51.818-29.775,63.453-59.6c10.789-27.652,9.075-55.122-4.354-81.358
	c-14.44-28.209-37.679-45.748-68.754-52.515c-18.683-4.068-37.137-2.563-54.916,4.187C84.052,53.771,64.002,74.18,53.508,103.484
	c-10.047,28.054-7.396,55.315,6.899,81.389c3.519,6.419,4.243,12.718,1.968,19.721C59.668,212.927,57.542,221.447,55.009,230.434z"
	/>
<path fill-rule="evenodd" clip-rule="evenodd" fill="none" d="M55.009,230.434c2.532-8.986,4.659-17.507,7.366-25.84
	c2.275-7.003,1.551-13.302-1.968-19.721c-14.294-26.074-16.946-53.335-6.899-81.389c10.494-29.304,30.544-49.712,59.645-60.761
	c17.779-6.75,36.233-8.255,54.916-4.187c31.075,6.767,54.313,24.306,68.754,52.515c13.43,26.236,15.144,53.706,4.354,81.358
	c-11.635,29.824-33.05,49.854-63.453,59.6c-26.115,8.37-51.882,6.342-76.012-6.908c-7.328-4.023-13.584-3.296-20.693-1.202
	c-7.643,2.25-15.403,4.108-23.117,6.117C57.23,230.191,56.521,230.221,55.009,230.434z M180.887,193.759
	c1.129-0.15,3.17-0.311,5.165-0.704c12.831-2.53,20.827-11.147,21.792-23.104c0.269-3.32-0.768-5.412-3.797-6.828
	c-7.128-3.331-14.178-6.83-21.266-10.245c-3.704-1.785-5.003-1.594-7.712,1.575c-2.854,3.338-5.586,6.786-8.275,10.26
	c-1.747,2.257-3.978,2.89-6.522,2.009c-2.501-0.865-4.932-1.975-7.31-3.148c-14.535-7.171-25.686-17.976-34.059-31.774
	c-1.781-2.934-1.663-5.529,0.625-8.114c1.693-1.912,3.393-3.848,4.83-5.951c1.666-2.437,3.553-5.077,2.297-8.214
	c-3.261-8.155-6.704-16.238-10.168-24.31c-0.413-0.962-1.254-1.959-2.162-2.452c-4.718-2.562-12.446-1.304-16.301,2.502
	c-11.323,11.181-13.972,27.954-6.299,42.066c12.768,23.482,30.037,42.742,53.625,55.853
	C156.114,189.161,167.582,192.979,180.887,193.759z"/>
<path fill-rule="evenodd" clip-rule="evenodd" fill="#FFFFFF" d="M180.887,193.759c-13.305-0.78-24.772-4.598-35.535-10.58
	c-23.588-13.11-40.857-32.37-53.625-55.853c-7.673-14.113-5.024-30.885,6.299-42.066c3.854-3.806,11.583-5.063,16.301-2.502
	c0.908,0.493,1.749,1.49,2.162,2.452c3.464,8.071,6.907,16.154,10.168,24.31c1.255,3.137-0.632,5.777-2.297,8.214
	c-1.437,2.103-3.137,4.039-4.83,5.951c-2.288,2.585-2.406,5.18-0.625,8.114c8.373,13.798,19.524,24.603,34.059,31.774
	c2.378,1.174,4.809,2.283,7.31,3.148c2.545,0.881,4.775,0.248,6.522-2.009c2.689-3.474,5.421-6.922,8.275-10.26
	c2.709-3.169,4.008-3.36,7.712-1.575c7.088,3.415,14.138,6.914,21.266,10.245c3.029,1.416,4.065,3.508,3.797,6.828
	c-0.965,11.957-8.961,20.574-21.792,23.104C184.057,193.448,182.016,193.608,180.887,193.759z"/>
</svg>
