<?xml version="1.0" encoding="utf-8"?>
<!-- Generator: Adobe Illustrator 16.0.0, SVG Export Plug-In . SVG Version: 6.00 Build 0)  -->
<!DOCTYPE svg PUBLIC "-//W3C//DTD SVG 1.1//EN" "http://www.w3.org/Graphics/SVG/1.1/DTD/svg11.dtd">
<svg version="1.1" id="Layer_1" xmlns="http://www.w3.org/2000/svg" xmlns:xlink="http://www.w3.org/1999/xlink" x="0px" y="0px"
	 width="283.46px" height="283.46px" viewBox="0 0 283.46 283.46" enable-background="new 0 0 283.46 283.46" xml:space="preserve">
<path fill="#FFFFFF" d="M146.1,237.587c-2.919,0-5.836,0-8.753,0c-0.275-0.028-0.551-0.071-0.829-0.076
	c-2.144-0.024-4.29-0.027-6.435-0.058c-7.977-0.128-15.955-0.254-23.93-0.392c-2.425-0.044-4.849-0.094-7.27-0.177
	c-5.765-0.196-11.53-0.405-17.295-0.622c-1.95-0.072-3.901-0.166-5.849-0.277c-3.339-0.19-6.678-0.392-10.017-0.604
	c-2.011-0.125-4.023-0.249-6.03-0.432c-3.287-0.298-6.573-0.622-9.854-0.975c-3.26-0.353-6.502-0.838-9.711-1.53
	c-10.408-2.243-19.364-9.796-23.362-19.698c-1.162-2.876-1.853-5.88-2.45-8.909c-0.798-4.04-1.393-8.11-1.828-12.203
	c-0.349-3.283-0.692-6.565-0.973-9.856c-0.243-2.859-0.431-5.729-0.579-8.598c-0.238-4.647-0.439-9.294-0.628-13.945
	c-0.115-2.85-0.171-5.701-0.265-8.555c-0.01-0.336-0.083-0.672-0.128-1.008c0-2.789,0-5.577,0-8.365
	c0.041-0.229,0.105-0.457,0.114-0.688c0.054-1.372,0.103-2.744,0.144-4.115c0.067-2.317,0.087-4.634,0.193-6.945
	c0.214-4.734,0.444-9.467,0.721-14.199c0.178-3.061,0.391-6.122,0.694-9.17c0.396-3.965,0.863-7.926,1.363-11.881
	c0.499-3.957,1.159-7.893,2.209-11.742c2.887-10.594,9.42-18.052,19.502-22.39c3.157-1.358,6.512-1.977,9.883-2.499
	c4.006-0.622,8.032-1.072,12.07-1.397c4.829-0.392,9.663-0.728,14.498-1.039c3.275-0.21,6.551-0.371,9.83-0.505
	c5.143-0.208,10.286-0.405,15.43-0.55c6.753-0.193,13.506-0.354,20.261-0.486c5.447-0.104,10.895-0.146,16.341-0.221
	c0.276-0.004,0.551-0.054,0.826-0.085c5.234,0,10.47,0,15.703,0c0.363,0.033,0.724,0.085,1.083,0.091
	c3.477,0.049,6.951,0.085,10.423,0.136c4.46,0.066,8.923,0.111,13.383,0.223c6.668,0.168,13.333,0.379,20.002,0.585
	c2.655,0.084,5.315,0.178,7.972,0.311c4.433,0.22,8.867,0.463,13.296,0.722c2.674,0.158,5.351,0.323,8.021,0.561
	c3.671,0.331,7.338,0.711,11.007,1.11c2.962,0.323,5.904,0.791,8.815,1.436c11.853,2.632,21.544,12.038,24.544,23.811
	c1.346,5.288,2.167,10.667,2.796,16.076c0.447,3.874,0.827,7.76,1.14,11.647c0.324,4.061,0.581,8.128,0.774,12.197
	c0.227,4.711,0.428,9.428,0.507,14.145c0.133,7.613,0.127,15.229-0.116,22.841c-0.073,2.315-0.146,4.629-0.271,6.942
	c-0.217,4.092-0.45,8.179-0.724,12.267c-0.187,2.782-0.399,5.562-0.691,8.331c-0.36,3.43-0.783,6.857-1.23,10.279
	c-0.486,3.721-1.166,7.407-2.071,11.054c-2.9,11.667-11.828,20.819-23.406,23.932c-3.925,1.055-7.953,1.53-11.979,1.985
	c-2.362,0.271-4.734,0.494-7.104,0.694c-3.182,0.267-6.372,0.508-9.557,0.721c-2.567,0.175-5.136,0.309-7.709,0.436
	c-4.305,0.21-8.609,0.416-12.916,0.589c-3.301,0.133-6.604,0.23-9.906,0.313c-6.688,0.168-13.377,0.344-20.07,0.463
	c-6.237,0.108-12.482,0.142-18.723,0.214C146.693,237.516,146.397,237.562,146.1,237.587z M115.354,185.132
	c0.657-0.211,68.127-39.09,68.527-39.492c-22.822-13.217-45.635-26.426-68.527-39.684
	C115.354,132.431,115.354,158.775,115.354,185.132z"/>
</svg>
